<?xml version="1.0" encoding="UTF-8"?>
<!DOCTYPE svg PUBLIC "-//W3C//DTD SVG 1.1//EN" "http://www.w3.org/Graphics/SVG/1.1/DTD/svg11.dtd">
<svg xmlns="http://www.w3.org/2000/svg" version="1.1" width="128px" height="128px" style="shape-rendering:geometricPrecision; text-rendering:geometricPrecision; image-rendering:optimizeQuality; fill-rule:evenodd; clip-rule:evenodd" xmlns:xlink="http://www.w3.org/1999/xlink">
<g><path style="opacity:0.861" fill="#040301" d="M 106.5,-0.5 C 110.167,-0.5 113.833,-0.5 117.5,-0.5C 121.5,2.16667 124.833,5.5 127.5,9.5C 127.5,13.1667 127.5,16.8333 127.5,20.5C 124.684,23.6675 122.684,27.3342 121.5,31.5C 131.342,73.2108 117.009,103.044 78.5,121C 62.8929,125.174 47.2263,125.341 31.5,121.5C 27.3342,122.684 23.6675,124.684 20.5,127.5C 17.1667,127.5 13.8333,127.5 10.5,127.5C 8.43191,126.625 6.43191,125.459 4.5,124C 2.96973,121.648 1.30307,119.481 -0.5,117.5C -0.5,113.833 -0.5,110.167 -0.5,106.5C 2.31571,103.332 4.31571,99.6658 5.5,95.5C 2.25997,81.1868 2.09331,66.8534 5,52.5C 7.89383,42.877 12.7272,34.377 19.5,27C 20.0944,26.5357 20.7611,26.369 21.5,26.5C 22.4124,27.7382 22.5791,29.0715 22,30.5C 13.155,40.8651 8.32166,52.8651 7.5,66.5C 7.65169,75.8665 8.31836,85.1998 9.5,94.5C 9.33333,96.5 9.16667,98.5 9,100.5C 6.46746,103.852 4.63413,107.519 3.5,111.5C 5.48449,121.153 11.1512,124.653 20.5,122C 21.9842,120.426 23.6508,119.093 25.5,118C 32.8398,117.628 40.1731,117.795 47.5,118.5C 80.8346,121.061 104.001,106.728 117,75.5C 117.794,72.5285 118.461,69.5285 119,66.5C 119.496,53.7958 118.996,41.1291 117.5,28.5C 119.662,24.1399 121.662,19.6399 123.5,15C 119.02,2.42345 111.687,0.423454 101.5,9C 95.8431,9.49942 90.1764,9.66609 84.5,9.5C 67.2577,4.91366 51.2577,7.747 36.5,18C 34.735,18.6397 33.0683,18.4731 31.5,17.5C 33.0208,13.8848 35.6875,11.3848 39.5,10C 57.6073,1.93343 76.274,0.433427 95.5,5.5C 99.6658,4.31571 103.332,2.31571 106.5,-0.5 Z"/></g>
<g><path style="opacity:1" fill="#fddf01" d="M 117.5,28.5 C 123.243,66.8054 109.243,95.3054 75.5,114C 66.5582,117.897 57.2249,119.397 47.5,118.5C 40.1731,117.795 32.8398,117.628 25.5,118C 23.6508,119.093 21.9842,120.426 20.5,122C 11.1512,124.653 5.48449,121.153 3.5,111.5C 4.63413,107.519 6.46746,103.852 9,100.5C 9.16667,98.5 9.33333,96.5 9.5,94.5C 8.31836,85.1998 7.65169,75.8665 7.5,66.5C 9.06378,62.313 10.5638,57.9797 12,53.5C 13.3571,50.1019 15.1904,47.1019 17.5,44.5C 17.8338,47.2748 19.1671,47.9415 21.5,46.5C 29.8016,32.1788 41.8016,22.3455 57.5,17C 58.694,14.3422 57.694,13.1756 54.5,13.5C 57.5575,11.8679 60.8909,10.7013 64.5,10C 71.1583,9.50042 77.825,9.33375 84.5,9.5C 90.1764,9.66609 95.8431,9.49942 101.5,9C 111.687,0.423454 119.02,2.42345 123.5,15C 121.662,19.6399 119.662,24.1399 117.5,28.5 Z"/></g>
<g><path style="opacity:0.976" fill="#efeee9" d="M 84.5,9.5 C 77.825,9.33375 71.1583,9.50042 64.5,10C 60.8909,10.7013 57.5575,11.8679 54.5,13.5C 39.9252,19.0621 28.2586,28.3954 19.5,41.5C 18.0937,41.9731 17.427,42.9731 17.5,44.5C 15.1904,47.1019 13.3571,50.1019 12,53.5C 10.5638,57.9797 9.06378,62.313 7.5,66.5C 8.32166,52.8651 13.155,40.8651 22,30.5C 22.5791,29.0715 22.4124,27.7382 21.5,26.5C 22.5,25.8333 23.5,25.1667 24.5,24.5C 25.8333,24.5 27.1667,24.5 28.5,24.5C 28.5,23.1667 28.5,21.8333 28.5,20.5C 29.8333,19.8333 30.8333,18.8333 31.5,17.5C 33.0683,18.4731 34.735,18.6397 36.5,18C 51.2577,7.747 67.2577,4.91366 84.5,9.5 Z"/></g>
<g><path style="opacity:1" fill="#231e07" d="M 65.5,11.5 C 68.1873,11.3359 70.854,11.5026 73.5,12C 74.5171,13.0495 74.6838,14.2161 74,15.5C 71.2628,16.6105 68.4294,16.7772 65.5,16C 64.2721,14.5098 64.2721,13.0098 65.5,11.5 Z"/></g>
<g><path style="opacity:1" fill="#141105" d="M 54.5,13.5 C 57.694,13.1756 58.694,14.3422 57.5,17C 41.8016,22.3455 29.8016,32.1788 21.5,46.5C 19.1671,47.9415 17.8338,47.2748 17.5,44.5C 18.9063,44.0269 19.573,43.0269 19.5,41.5C 28.2586,28.3954 39.9252,19.0621 54.5,13.5 Z"/></g>
<g><path style="opacity:0.773" fill="#0a0a0a" d="M 28.5,20.5 C 28.5,21.8333 28.5,23.1667 28.5,24.5C 27.1667,24.5 25.8333,24.5 24.5,24.5C 24.2015,20.9351 25.5348,19.6018 28.5,20.5 Z"/></g>
<g><path style="opacity:1" fill="#a39320" d="M 19.5,41.5 C 19.573,43.0269 18.9063,44.0269 17.5,44.5C 17.427,42.9731 18.0937,41.9731 19.5,41.5 Z"/></g>
<g><path style="opacity:1" fill="#eb9e00" d="M 117.5,28.5 C 118.996,41.1291 119.496,53.7958 119,66.5C 118.461,69.5285 117.794,72.5285 117,75.5C 104.001,106.728 80.8346,121.061 47.5,118.5C 57.2249,119.397 66.5582,117.897 75.5,114C 109.243,95.3054 123.243,66.8054 117.5,28.5 Z"/></g>
<g><path style="opacity:1" fill="#1e1a04" d="M 59.5,94.5 C 61.9118,94.6941 62.9118,96.0274 62.5,98.5C 61.1667,98.5 59.8333,98.5 58.5,98.5C 58.4326,97.0413 58.7659,95.7079 59.5,94.5 Z"/></g>
<g><path style="opacity:1" fill="#141102" d="M 66.5,99.5 C 67.5,99.5 68.5,99.5 69.5,99.5C 69.5,100.833 69.5,102.167 69.5,103.5C 68.5,103.5 67.5,103.5 66.5,103.5C 66.5,102.167 66.5,100.833 66.5,99.5 Z"/></g>
<g><path style="opacity:1" fill="#191502" d="M 52.5,101.5 C 53.8333,101.5 55.1667,101.5 56.5,101.5C 56.5,102.5 56.5,103.5 56.5,104.5C 55.1667,104.5 53.8333,104.5 52.5,104.5C 52.5,103.5 52.5,102.5 52.5,101.5 Z"/></g>
<g><path style="opacity:1" fill="#171303" d="M 43.5,104.5 C 44.8333,104.5 46.1667,104.5 47.5,104.5C 47.5,105.5 47.5,106.5 47.5,107.5C 46.1667,107.5 44.8333,107.5 43.5,107.5C 43.5,106.5 43.5,105.5 43.5,104.5 Z"/></g>
<g><path style="opacity:1" fill="#171302" d="M 60.5,105.5 C 61.5,105.5 62.5,105.5 63.5,105.5C 63.5,106.833 63.5,108.167 63.5,109.5C 62.5,109.5 61.5,109.5 60.5,109.5C 60.5,108.167 60.5,106.833 60.5,105.5 Z"/></g>
<g><path style="opacity:1" fill="#221d05" d="M 51.5,108.5 C 52.5,108.5 53.5,108.5 54.5,108.5C 54.5,109.833 54.5,111.167 54.5,112.5C 51.0464,112.733 50.0464,111.4 51.5,108.5 Z"/></g>
</svg>
