<?xml version="1.0" standalone="no"?>
<!DOCTYPE svg PUBLIC "-//W3C//DTD SVG 20010904//EN"
 "http://www.w3.org/TR/2001/REC-SVG-20010904/DTD/svg10.dtd">
<svg version="1.0" xmlns="http://www.w3.org/2000/svg"
 width="700.000000pt" height="700.000000pt" viewBox="0 0 700.000000 700.000000"
 preserveAspectRatio="xMidYMid meet">
<metadata>
Created by potrace 1.14, written by Peter Selinger 2001-2017
</metadata>
<g transform="translate(0.000000,700.000000) scale(0.100000,-0.100000)"
fill="#000000" stroke="none">
<path d="M5771 6981 c-9 -9 -57 -43 -106 -75 -50 -33 -102 -68 -117 -78 -15
-10 -29 -18 -32 -18 -3 0 -31 -12 -63 -27 -32 -15 -60 -28 -63 -28 -3 -1 -18
-7 -33 -13 -16 -7 -34 -12 -41 -12 -6 0 -17 -5 -24 -12 -14 -14 -186 -12 -177
3 4 6 -116 33 -150 34 -11 0 -22 3 -25 6 -3 4 -23 9 -45 12 -22 4 -63 11 -91
16 -27 5 -59 8 -70 7 -10 -2 -21 1 -24 5 -3 5 -35 10 -70 11 -36 2 -67 6 -70
10 -3 4 -41 9 -84 12 -43 3 -81 7 -84 10 -3 3 -11 1 -19 -5 -7 -6 -13 -7 -13
-2 0 5 -11 10 -26 11 -18 1 -23 -2 -18 -11 5 -7 0 -6 -10 3 -34 27 -613 17
-835 -15 -87 -12 -114 -17 -135 -22 -11 -2 -28 -5 -36 -5 -8 0 -37 -5 -65 -10
-27 -5 -66 -11 -85 -14 -19 -3 -48 -9 -65 -14 -16 -5 -42 -11 -56 -14 -14 -2
-61 -13 -105 -25 -43 -11 -98 -25 -122 -31 -23 -6 -40 -15 -37 -20 3 -4 -3 -6
-13 -3 -18 4 -123 -28 -292 -90 -47 -17 -87 -33 -90 -36 -3 -4 -14 -8 -25 -9
-11 -2 -23 -9 -27 -15 -4 -7 -8 -9 -8 -5 0 8 -61 -14 -150 -55 -30 -14 -74
-33 -98 -43 -23 -10 -42 -21 -42 -26 0 -4 -6 -8 -13 -8 -8 0 -23 -8 -35 -17
-11 -10 -37 -31 -57 -46 -19 -16 -32 -33 -29 -39 4 -6 3 -8 -3 -5 -14 9 -55
-32 -49 -49 3 -8 0 -11 -8 -8 -17 6 -60 -61 -50 -77 4 -8 3 -9 -4 -5 -7 4 -24
-19 -46 -62 -40 -80 -75 -124 -130 -163 -35 -26 -44 -28 -92 -23 -29 4 -64 4
-78 0 -34 -8 -80 -52 -70 -67 4 -8 3 -9 -4 -5 -7 4 -12 1 -12 -8 0 -8 6 -17
13 -19 7 -3 5 -6 -5 -6 -10 -1 -18 -8 -18 -16 0 -7 8 -19 18 -25 15 -10 15
-11 0 -6 -20 6 -29 -13 -16 -37 13 -24 3 -35 -90 -96 -53 -34 -89 -51 -110
-51 -18 0 -32 -4 -32 -10 0 -5 -6 -7 -13 -4 -15 5 -104 -91 -99 -108 1 -5 -2
-7 -7 -4 -5 4 -22 -10 -38 -31 -28 -38 -41 -54 -87 -108 -15 -16 -24 -36 -21
-43 3 -7 1 -10 -5 -7 -5 3 -17 -7 -27 -22 -10 -15 -21 -32 -26 -38 -47 -58
-86 -119 -81 -126 3 -5 1 -9 -5 -9 -14 0 -102 -151 -94 -163 3 -5 2 -7 -4 -4
-5 3 -27 -29 -49 -71 -21 -42 -42 -80 -46 -83 -5 -3 -9 -17 -10 -31 -1 -15 -5
-25 -9 -23 -5 4 -25 -35 -71 -145 -10 -25 -23 -53 -29 -63 -5 -10 -7 -22 -4
-27 3 -4 0 -10 -5 -12 -6 -2 -12 -10 -14 -18 -2 -8 -8 -28 -15 -44 -6 -16 -9
-36 -7 -43 3 -8 2 -11 -4 -8 -5 3 -18 -27 -30 -67 -12 -40 -25 -82 -30 -93 -5
-11 -12 -37 -15 -59 -3 -21 -8 -42 -11 -47 -3 -5 1 -9 8 -9 10 0 10 -2 -1 -9
-8 -5 -11 -16 -8 -25 4 -9 1 -16 -5 -16 -6 0 -9 -3 -6 -6 4 -3 3 -18 -2 -34
-5 -18 -4 -32 3 -40 9 -9 9 -11 1 -7 -8 5 -14 -11 -19 -46 -4 -28 -9 -61 -11
-72 -2 -11 -6 -47 -9 -80 -2 -33 -5 -60 -5 -60 -5 0 -10 -52 -12 -117 -2 -43
-5 -78 -8 -78 -3 0 -6 -15 -7 -32 0 -33 -3 -169 -3 -198 -1 -8 -2 -93 -4 -187
-2 -112 0 -171 6 -167 6 4 7 0 1 -12 -5 -11 -8 -32 -7 -49 2 -16 5 -73 8 -125
3 -52 5 -95 6 -95 1 0 3 -29 6 -65 2 -36 6 -83 9 -105 3 -22 10 -74 16 -115
10 -75 18 -127 24 -165 13 -84 16 -101 20 -113 3 -7 7 -34 11 -60 3 -26 10
-49 15 -50 5 -2 7 -7 4 -12 -3 -5 0 -31 6 -59 10 -50 9 -57 -26 -171 -1 -3 -7
-18 -14 -35 -14 -37 -18 -47 -20 -60 -2 -5 -8 -17 -15 -25 -13 -14 -23 -37
-24 -53 -1 -4 -10 -19 -22 -34 -11 -14 -20 -32 -20 -39 0 -8 -4 -14 -10 -14
-5 0 -10 -6 -10 -14 0 -7 -7 -19 -15 -26 -9 -7 -14 -19 -11 -27 3 -8 2 -12 -3
-9 -4 3 -23 -16 -42 -42 -18 -26 -39 -53 -45 -59 -9 -9 -12 -102 -12 -346 0
-332 0 -334 22 -358 12 -13 31 -37 40 -52 10 -15 22 -24 27 -21 5 3 8 1 7 -4
-2 -5 6 -21 17 -36 26 -36 72 -98 84 -112 4 -5 14 -20 20 -32 7 -13 16 -20 22
-17 5 4 9 3 8 -2 -3 -18 2 -33 10 -33 6 0 22 -11 37 -25 15 -14 34 -23 41 -21
7 3 12 1 10 -5 -1 -5 25 -24 58 -42 33 -18 62 -35 65 -38 11 -14 83 -39 93
-32 5 3 7 1 4 -4 -4 -7 7 -12 29 -15 19 -2 38 0 40 4 3 5 10 6 15 2 6 -3 81
-6 167 -5 86 0 191 1 232 1 69 0 78 3 110 30 74 64 82 70 85 70 14 0 103 69
97 75 -4 5 -1 5 7 0 7 -4 16 -4 20 1 13 19 184 96 286 129 33 11 63 24 67 30
5 6 8 5 8 -4 0 -9 8 -12 25 -9 13 3 22 1 19 -3 -3 -5 4 -10 15 -10 12 -1 24
-2 29 -3 44 -12 130 -30 142 -31 8 -1 40 -7 70 -13 59 -12 70 -14 195 -32 44
-6 91 -13 105 -15 37 -6 169 -18 325 -30 107 -8 424 -9 555 0 58 3 122 6 143
5 29 -1 37 2 31 12 -5 9 -4 10 4 3 7 -6 30 -9 52 -7 33 3 40 8 36 21 -5 14 -4
14 7 1 13 -16 37 -24 37 -13 0 5 16 8 36 7 20 -1 55 2 77 7 23 4 62 10 87 14
70 10 103 15 130 20 14 3 36 8 50 10 14 3 40 8 59 11 56 9 71 13 79 18 4 2 25
7 47 10 74 12 206 52 198 61 -4 4 -2 5 5 0 8 -4 31 0 53 10 33 16 37 20 26 34
-10 14 -10 14 5 3 14 -11 35 -3 147 54 73 37 128 71 124 77 -3 6 -1 7 5 3 12
-7 151 64 177 91 8 8 15 12 15 9 0 -3 23 8 50 25 28 17 48 34 45 39 -3 4 4 6
15 3 11 -3 20 -1 20 5 0 6 9 14 20 17 11 4 17 11 14 17 -4 6 -2 8 4 4 10 -6
133 69 140 87 2 4 8 7 13 7 5 0 28 15 52 33 24 17 56 41 71 52 15 11 40 30 54
42 15 13 31 23 35 23 5 0 5 5 1 12 -4 7 -3 8 4 4 6 -4 19 1 30 11 10 10 40 36
67 57 28 22 67 56 87 77 20 20 41 39 47 40 24 9 321 312 321 328 0 5 7 12 16
15 9 3 14 12 11 20 -3 7 0 13 7 12 23 -2 210 239 199 257 -3 5 -1 7 4 4 11 -7
46 39 46 60 0 7 3 10 7 8 4 -3 16 11 26 30 10 19 23 35 27 35 5 0 7 9 4 20 -3
11 -2 18 2 16 6 -4 48 55 82 119 36 66 120 235 120 242 0 5 5 13 11 20 5 7 6
18 2 24 -4 7 -3 9 3 6 10 -6 26 30 28 61 0 7 5 16 10 20 10 7 56 125 90 229 9
29 13 58 9 64 -4 8 -3 9 4 5 7 -4 12 -5 12 -2 0 4 14 60 30 126 17 66 28 125
24 132 -4 6 -3 8 3 5 15 -9 22 26 10 48 -6 12 -6 16 1 11 12 -7 27 79 16 96
-4 7 -3 8 4 4 8 -5 12 1 13 16 0 13 2 30 4 38 7 29 15 86 20 140 2 30 7 66 10
80 2 14 7 68 10 120 3 52 7 112 9 133 1 21 -3 37 -8 37 -8 0 -8 3 -1 8 15 10
17 133 2 151 -9 12 -9 13 0 8 16 -10 13 174 -2 185 -6 5 -6 8 1 8 6 0 10 10 8
23 -1 12 -3 22 -4 22 0 0 -3 43 -6 95 -4 83 -10 155 -14 155 -1 0 -12 126 -13
153 0 6 -3 12 -6 12 -4 0 -6 12 -5 27 0 15 -3 46 -7 69 -12 62 -21 127 -20
147 0 9 -4 17 -8 17 -4 0 -7 10 -6 23 1 12 -2 40 -7 62 -5 22 -14 63 -19 90
-5 28 -14 70 -19 95 -6 25 -13 59 -16 75 -3 17 -11 37 -17 45 -6 8 -7 11 -2 7
11 -9 48 101 38 116 -3 6 -1 7 5 3 7 -4 12 -2 12 4 0 17 71 170 98 212 21 33
23 40 11 55 -12 16 -12 17 2 6 13 -11 23 -3 64 58 27 39 53 76 59 83 48 52 47
44 47 240 1 103 -1 189 -3 191 -2 2 -1 34 2 72 7 90 -1 169 -17 166 -7 -2 -10
3 -8 10 7 18 -62 107 -83 107 -11 0 -13 3 -5 8 14 9 -139 179 -157 174 -6 -1
-9 2 -6 6 7 12 -28 44 -39 35 -4 -5 -5 -3 -1 4 3 7 -7 21 -26 34 -18 13 -36
28 -40 34 -4 7 -26 25 -50 41 -24 16 -49 34 -55 41 -9 8 -108 11 -354 11 -303
0 -343 -2 -358 -17z m-1521 -221 c0 -5 -2 -10 -4 -10 -3 0 -8 5 -11 10 -3 6
-1 10 4 10 6 0 11 -4 11 -10z m1280 6 c0 -3 -4 -8 -10 -11 -5 -3 -10 -1 -10 4
0 6 5 11 10 11 6 0 10 -2 10 -4z m-2567 -81 c-3 -9 -8 -14 -10 -11 -3 3 -2 9
2 15 9 16 15 13 8 -4z m647 1 c0 -2 -7 -7 -16 -10 -8 -3 -12 -2 -9 4 6 10 25
14 25 6z m-230 -40 c0 -2 -8 -10 -17 -17 -16 -13 -17 -12 -4 4 13 16 21 21 21
13z m104 -52 c3 -8 2 -12 -4 -9 -6 3 -10 10 -10 16 0 14 7 11 14 -7z m446 10
c0 -8 -19 -13 -24 -6 -3 5 1 9 9 9 8 0 15 -2 15 -3z m1440 -4 c0 -5 -2 -10 -4
-10 -3 0 -8 5 -11 10 -3 6 -1 10 4 10 6 0 11 -4 11 -10z m-76 -78 c3 -5 -1 -9
-9 -9 -8 0 -12 4 -9 9 3 4 7 8 9 8 2 0 6 -4 9 -8z m-2724 -82 c0 -5 -2 -10 -4
-10 -3 0 -8 5 -11 10 -3 6 -1 10 4 10 6 0 11 -4 11 -10z m85 -40 c3 -6 -1 -7
-9 -4 -18 7 -21 14 -7 14 6 0 13 -4 16 -10z m4245 -196 c0 -8 -19 -13 -24 -6
-3 5 1 9 9 9 8 0 15 -2 15 -3z m-4805 -124 c-3 -5 -12 -10 -18 -10 -7 0 -6 4
3 10 19 12 23 12 15 0z m4715 -116 c0 -8 -19 -13 -24 -6 -3 5 1 9 9 9 8 0 15
-2 15 -3z m-5365 -94 c-4 -6 -1 -19 6 -28 12 -16 12 -16 -5 0 -16 14 -15 38 0
38 3 0 2 -5 -1 -10z m-38 -135 c0 -8 -4 -12 -9 -9 -5 3 -6 10 -3 15 9 13 12
11 12 -6z m134 -22 c13 -16 12 -17 -3 -4 -10 7 -18 15 -18 17 0 8 8 3 21 -13z
m5183 -111 c3 -5 -1 -9 -9 -9 -8 0 -12 4 -9 9 3 4 7 8 9 8 2 0 6 -4 9 -8z
m-157 -47 c0 -8 -4 -12 -9 -9 -5 3 -6 10 -3 15 9 13 12 11 12 -6z m-82 -83
c-3 -3 -11 0 -18 7 -9 10 -8 11 6 5 10 -3 15 -9 12 -12z m-5515 -456 c0 -2 -8
-10 -17 -17 -16 -13 -17 -12 -4 4 13 16 21 21 21 13z m5560 -140 c0 -2 -8 -10
-17 -17 -16 -13 -17 -12 -4 4 13 16 21 21 21 13z m-5720 -116 c0 -5 -5 -10
-11 -10 -5 0 -7 5 -4 10 3 6 8 10 11 10 2 0 4 -4 4 -10z m5840 -80 c0 -5 -5
-10 -11 -10 -5 0 -7 5 -4 10 3 6 8 10 11 10 2 0 4 -4 4 -10z m-149 -173 c-10
-9 -11 -8 -5 6 3 10 9 15 12 12 3 -3 0 -11 -7 -18z m159 -381 c0 -2 -8 -10
-17 -17 -16 -13 -17 -12 -4 4 13 16 21 21 21 13z m-6 -724 c3 -5 -1 -9 -9 -9
-8 0 -12 4 -9 9 3 4 7 8 9 8 2 0 6 -4 9 -8z m-6244 -438 c0 -8 -19 -13 -24 -6
-3 5 1 9 9 9 8 0 15 -2 15 -3z m-160 -38 c0 -3 -4 -8 -10 -11 -5 -3 -10 -1
-10 4 0 6 5 11 10 11 6 0 10 -2 10 -4z m155 -155 c3 -5 2 -12 -3 -15 -5 -3 -9
1 -9 9 0 17 3 19 12 6z m6078 -246 c-3 -9 -8 -14 -10 -11 -3 3 -2 9 2 15 9 16
15 13 8 -4z m-309 -403 c3 -5 -1 -9 -9 -9 -8 0 -12 4 -9 9 3 4 7 8 9 8 2 0 6
-4 9 -8z m-5764 -316 c0 -3 -4 -8 -10 -11 -5 -3 -10 -1 -10 4 0 6 5 11 10 11
6 0 10 -2 10 -4z m5354 -92 c3 -8 2 -12 -4 -9 -6 3 -10 10 -10 16 0 14 7 11
14 -7z m-79 -234 c3 -5 1 -10 -4 -10 -6 0 -11 5 -11 10 0 6 2 10 4 10 3 0 8
-4 11 -10z m-404 -333 c-10 -9 -11 -8 -5 6 3 10 9 15 12 12 3 -3 0 -11 -7 -18z
m-5191 -61 c0 -2 -7 -7 -16 -10 -8 -3 -12 -2 -9 4 6 10 25 14 25 6z m5115 -86
c3 -5 1 -10 -4 -10 -6 0 -11 5 -11 10 0 6 2 10 4 10 3 0 8 -4 11 -10z m-4915
-464 c0 -2 -8 -10 -17 -17 -16 -13 -17 -12 -4 4 13 16 21 21 21 13z m1404 -14
c3 -5 -1 -9 -9 -9 -8 0 -12 4 -9 9 3 4 7 8 9 8 2 0 6 -4 9 -8z m2711 -2 c3 -5
1 -10 -4 -10 -6 0 -11 5 -11 10 0 6 2 10 4 10 3 0 8 -4 11 -10z m-1235 -16 c0
-8 -19 -13 -24 -6 -3 5 1 9 9 9 8 0 15 -2 15 -3z m-443 -59 c0 -8 -4 -12 -9
-9 -5 3 -6 10 -3 15 9 13 12 11 12 -6z m-477 -39 c0 -2 -7 -7 -16 -10 -8 -3
-12 -2 -9 4 6 10 25 14 25 6z m157 -41 c0 -8 -4 -12 -9 -9 -5 3 -6 10 -3 15 9
13 12 11 12 -6z m1596 0 c-3 -9 -8 -14 -10 -11 -3 3 -2 9 2 15 9 16 15 13 8
-4z m-1353 -5 c0 -5 -2 -10 -4 -10 -3 0 -8 5 -11 10 -3 6 -1 10 4 10 6 0 11
-4 11 -10z m757 -75 c0 -8 -4 -12 -9 -9 -5 3 -6 10 -3 15 9 13 12 11 12 -6z
m-2672 -165 c-3 -5 -12 -10 -18 -10 -7 0 -6 4 3 10 19 12 23 12 15 0z"/>
</g>
</svg>
